<svg width="42" height="17" viewBox="0 0 42 17" fill="none" xmlns="http://www.w3.org/2000/svg">
<path d="M36.0709 16.4064H32.1997L27.1215 0.430756H30.674L34.1581 11.6626H34.2036L37.7333 0.430756H41.2857L36.0709 16.4064Z" fill="black"/>
<path d="M23.5463 14.8252C22.2938 16.0809 20.9047 16.732 19.1285 16.732C16.3048 16.732 14.0731 14.9647 14.0731 11.9416C14.0731 9.70921 15.7355 8.17443 17.58 7.31402C16.7375 6.26758 16.0998 5.2909 16.0998 3.9189C16.0998 1.70974 18.1038 0.267975 20.176 0.267975C22.5443 0.267975 24.4799 1.57021 24.4799 4.10493C24.4799 5.96527 23.273 7.24426 21.7018 8.08141L23.7285 10.6161C24.0473 10.0348 24.2067 9.3604 24.2978 8.70928H26.9849C26.8255 10.151 26.3473 11.523 25.4819 12.6393L28.67 16.4297H24.8443L23.5463 14.8252ZM19.2196 9.3604C18.1265 9.84874 17.0335 10.7091 17.0335 12.0114C17.0335 13.1741 18.081 14.1043 19.2651 14.1043C20.381 14.1043 21.178 13.5229 21.9067 12.6858L19.2196 9.3604ZM20.3127 2.38411C19.5612 2.38411 18.9008 2.96547 18.9008 3.80262C18.9008 4.80256 19.5384 5.45368 20.1305 6.19782C21.0186 5.61646 21.7245 5.08161 21.7245 3.9189C21.7473 3.05849 21.0869 2.38411 20.3127 2.38411Z" fill="#FF0000"/>
<path d="M0 0.430756H11.7048V3.38405H3.43858V6.80243H11.0217V9.52318H3.43858V13.4531H11.887V16.4064H0V0.430756Z" fill="black"/>
</svg>
